ffmpeg started on 2026-04-01 at 11:18:23
Report written to "D:\Convert\FFMetrics\reports\ssim_report-6.txt"
Log level: 32
Command line:
ffmpeg -hide_banner -nostdin -r 24000/1001 -i "F:\\Convert\\files\\[DC] Make Heroine ga Oosugiru - 07_Telegram_HEVC(266).mkv" -r 24000/1001 -i "F:\\Convert\\files\\[DC] Make Heroine ga Oosugiru - 07_Telegram.mp4" -lavfi "[0:v]settb=AVTB,setpts=PTS-STARTPTS,format=pix_fmts=yuv420p10le,fps=24000/1001,scale=1920:1080:flags=lanczos:param0=3:out_range=limited:out_color_matrix=bt709:out_chroma_loc=left,setsar=1/1,setdar=(1920/1080)*(1/1),colorspace=format=yuv420p10:range=tv:primaries=bt709:trc=bt709:space=bt709:fast=0[main];[1:v]settb=AVTB,setpts=PTS-STARTPTS,format=pix_fmts=yuv420p,fps=24000/1001,scale=1920:1080:flags=lanczos:param0=3:out_range=limited:out_color_matrix=bt709:out_chroma_loc=left,setsar=1/1,setdar=(1920/1080)*(1/1),colorspace=format=yuv420p:range=tv:primaries=bt709:trc=bt709:space=bt709:fast=0[ref];[main][ref]ssim=eof_action=endall:stats_file='D\\:/Convert/FFMetrics/logs/ssim_logfile-6.txt'" -f null -
Input #0, matroska,webm, from 'F:\Convert\files\[DC] Make Heroine ga Oosugiru - 07_Telegram_HEVC(266).mkv':
  Metadata:
    COMPATIBLE_BRANDS: isomiso2avc1mp41
    MAJOR_BRAND     : isom
    MINOR_VERSION   : 512
    ENCODER         : Lavf61.7.100
  Duration: 00:24:06.79, start: -0.021000, bitrate: 951 kb/s
  Stream #0:0: Video: hevc (Main 10), yuv420p10le(tv, bt709, progressive), 1920x1080 [SAR 1:1 DAR 16:9], 23.98 fps, 23.98 tbr, 1k tbn (default)
      Metadata:
        HANDLER_NAME    : VideoHandler
        VENDOR_ID       : [0][0][0][0]
        ENCODER         : Lavc61.19.100 libx265
        BPS             : 754148
        DURATION        : 00:24:06.569708333
        NUMBER_OF_FRAMES: 34683
        NUMBER_OF_BYTES : 136365903
        _STATISTICS_WRITING_APP: mkvpropedit v94.0 ('Initiate') 64-bit
        _STATISTICS_WRITING_DATE_UTC: 2026-03-30 11:21:16
        _STATISTICS_TAGS: BPS DURATION NUMBER_OF_FRAMES NUMBER_OF_BYTES
  Stream #0:1: Audio: aac (LC), 48000 Hz, stereo, fltp (default)
      Metadata:
        HANDLER_NAME    : SoundHandler
        VENDOR_ID       : [0][0][0][0]
        ENCODER         : Lavc61.19.100 aac
        BPS             : 193194
        DURATION        : 00:24:06.784000000
        NUMBER_OF_FRAMES: 67819
        NUMBER_OF_BYTES : 34938755
        _STATISTICS_WRITING_APP: mkvpropedit v94.0 ('Initiate') 64-bit
        _STATISTICS_WRITING_DATE_UTC: 2026-03-30 11:21:16
        _STATISTICS_TAGS: BPS DURATION NUMBER_OF_FRAMES NUMBER_OF_BYTES
Input #1, mov,mp4,m4a,3gp,3g2,mj2, from 'F:\Convert\files\[DC] Make Heroine ga Oosugiru - 07_Telegram.mp4':
  Metadata:
    major_brand     : isom
    minor_version   : 512
    compatible_brands: isomiso2avc1mp41
    encoder         : Lavf60.16.100
  Duration: 00:24:06.74, start: 0.000000, bitrate: 3764 kb/s
  Stream #1:0[0x1](und): Video: h264 (High) (avc1 / 0x31637661), yuv420p(tv, bt709, progressive), 1920x1080 [SAR 1:1 DAR 16:9], 3616 kb/s, 23.98 fps, 23.98 tbr, 24k tbn (default)
      Metadata:
        handler_name    : VideoHandler
        vendor_id       : [0][0][0][0]
        encoder         : Lavc60.31.102 h264_qsv
  Stream #1:1[0x2](und): Audio: aac (HE-AACv2) (mp4a / 0x6134706D), 48000 Hz, stereo, fltp, 144 kb/s (default)
      Metadata:
        handler_name    : SoundHandler
        vendor_id       : [0][0][0][0]
Stream mapping:
  Stream #0:0 (hevc) -> settb:default
  Stream #1:0 (h264) -> settb:default
  ssim:default -> Stream #0:0 (wrapped_avframe)
  Stream #0:1 -> #0:1 (aac (native) -> pcm_s16le (native))
Output #0, null, to 'pipe:':
  Metadata:
    COMPATIBLE_BRANDS: isomiso2avc1mp41
    MAJOR_BRAND     : isom
    MINOR_VERSION   : 512
    encoder         : Lavf61.7.100
  Stream #0:0: Video: wrapped_avframe, yuv420p10le(tv, bt709, progressive), 1920x1080 [SAR 1:1 DAR 16:9], q=2-31, 200 kb/s, 23.98 fps, 23.98 tbn
      Metadata:
        encoder         : Lavc61.19.100 wrapped_avframe
  Stream #0:1: Audio: pcm_s16le, 48000 Hz, stereo, s16, 1536 kb/s (default)
      Metadata:
        HANDLER_NAME    : SoundHandler
        VENDOR_ID       : [0][0][0][0]
        _STATISTICS_TAGS: BPS DURATION NUMBER_OF_FRAMES NUMBER_OF_BYTES
        BPS             : 193194
        DURATION        : 00:24:06.784000000
        NUMBER_OF_FRAMES: 67819
        NUMBER_OF_BYTES : 34938755
        _STATISTICS_WRITING_APP: mkvpropedit v94.0 ('Initiate') 64-bit
        _STATISTICS_WRITING_DATE_UTC: 2026-03-30 11:21:16
        encoder         : Lavc61.19.100 pcm_s16le
frame=  116 fps=0.0 q=-0.0 size=N/A time=00:00:04.83 bitrate=N/A speed=9.37x    frame=  291 fps=283 q=-0.0 size=N/A time=00:00:12.13 bitrate=N/A speed=11.8x    frame=  476 fps=307 q=-0.0 size=N/A time=00:00:19.85 bitrate=N/A speed=12.8x    frame=  646 fps=314 q=-0.0 size=N/A time=00:00:26.94 bitrate=N/A speed=13.1x    frame=  818 fps=316 q=-0.0 size=N/A time=00:00:34.11 bitrate=N/A speed=13.2x    frame=  961 fps=310 q=-0.0 size=N/A time=00:00:40.08 bitrate=N/A speed=12.9x    frame= 1111 fps=308 q=-0.0 size=N/A time=00:00:46.33 bitrate=N/A speed=12.8x    frame= 1258 fps=304 q=-0.0 size=N/A time=00:00:52.46 bitrate=N/A speed=12.7x    frame= 1395 fps=300 q=-0.0 size=N/A time=00:00:58.18 bitrate=N/A speed=12.5x    frame= 1535 fps=298 q=-0.0 size=N/A time=00:01:04.02 bitrate=N/A speed=12.4x    frame= 1665 fps=293 q=-0.0 size=N/A time=00:01:09.44 bitrate=N/A speed=12.2x    frame= 1813 fps=293 q=-0.0 size=N/A time=00:01:15.61 bitrate=N/A speed=12.2x    frame= 1962 fps=293 q=-0.0 size=N/A time=00:01:21.83 bitrate=N/A speed=12.2x    frame= 2083 fps=288 q=-0.0 size=N/A time=00:01:26.87 bitrate=N/A speed=  12x    frame= 2214 fps=286 q=-0.0 size=N/A time=00:01:32.34 bitrate=N/A speed=11.9x    frame= 2353 fps=285 q=-0.0 size=N/A time=00:01:38.13 bitrate=N/A speed=11.9x    frame= 2477 fps=282 q=-0.0 size=N/A time=00:01:43.31 bitrate=N/A speed=11.8x    frame= 2617 fps=282 q=-0.0 size=N/A time=00:01:49.15 bitrate=N/A speed=11.8x    frame= 2782 fps=284 q=-0.0 size=N/A time=00:01:56.03 bitrate=N/A speed=11.8x    frame= 2961 fps=287 q=-0.0 size=N/A time=00:02:03.49 bitrate=N/A speed=  12x    frame= 3141 fps=290 q=-0.0 size=N/A time=00:02:11.00 bitrate=N/A speed=12.1x    frame= 3331 fps=294 q=-0.0 size=N/A time=00:02:18.93 bitrate=N/A speed=12.3x    frame= 3526 fps=297 q=-0.0 size=N/A time=00:02:27.06 bitrate=N/A speed=12.4x    frame= 3711 fps=300 q=-0.0 size=N/A time=00:02:34.77 bitrate=N/A speed=12.5x    frame= 3893 fps=302 q=-0.0 size=N/A time=00:02:42.37 bitrate=N/A speed=12.6x    frame= 4082 fps=304 q=-0.0 size=N/A time=00:02:50.25 bitrate=N/A speed=12.7x    frame= 4269 fps=307 q=-0.0 size=N/A time=00:02:58.05 bitrate=N/A speed=12.8x    frame= 4436 fps=307 q=-0.0 size=N/A time=00:03:05.01 bitrate=N/A speed=12.8x    frame= 4603 fps=308 q=-0.0 size=N/A time=00:03:11.98 bitrate=N/A speed=12.8x    frame= 4778 fps=309 q=-0.0 size=N/A time=00:03:19.28 bitrate=N/A speed=12.9x    frame= 4949 fps=310 q=-0.0 size=N/A time=00:03:26.41 bitrate=N/A speed=12.9x    frame= 5138 fps=311 q=-0.0 size=N/A time=00:03:34.29 bitrate=N/A speed=  13x    frame= 5316 fps=312 q=-0.0 size=N/A time=00:03:41.72 bitrate=N/A speed=  13x    frame= 5497 fps=314 q=-0.0 size=N/A time=00:03:49.27 bitrate=N/A speed=13.1x    frame= 5698 fps=316 q=-0.0 size=N/A time=00:03:57.65 bitrate=N/A speed=13.2x    frame= 5877 fps=316 q=-0.0 size=N/A time=00:04:05.11 bitrate=N/A speed=13.2x    frame= 6065 fps=318 q=-0.0 size=N/A time=00:04:12.96 bitrate=N/A speed=13.3x    frame= 6252 fps=319 q=-0.0 size=N/A time=00:04:20.76 bitrate=N/A speed=13.3x    frame= 6445 fps=320 q=-0.0 size=N/A time=00:04:28.81 bitrate=N/A speed=13.4x    frame= 6640 fps=322 q=-0.0 size=N/A time=00:04:36.94 bitrate=N/A speed=13.4x    frame= 6823 fps=323 q=-0.0 size=N/A time=00:04:44.57 bitrate=N/A speed=13.5x    frame= 6996 fps=323 q=-0.0 size=N/A time=00:04:51.79 bitrate=N/A speed=13.5x    frame= 7175 fps=323 q=-0.0 size=N/A time=00:04:59.25 bitrate=N/A speed=13.5x    frame= 7356 fps=324 q=-0.0 size=N/A time=00:05:06.80 bitrate=N/A speed=13.5x    frame= 7531 fps=324 q=-0.0 size=N/A time=00:05:14.10 bitrate=N/A speed=13.5x    frame= 7695 fps=324 q=-0.0 size=N/A time=00:05:20.94 bitrate=N/A speed=13.5x    frame= 7873 fps=325 q=-0.0 size=N/A time=00:05:28.36 bitrate=N/A speed=13.5x    frame= 8045 fps=325 q=-0.0 size=N/A time=00:05:35.54 bitrate=N/A speed=13.5x    frame= 8217 fps=325 q=-0.0 size=N/A time=00:05:42.71 bitrate=N/A speed=13.6x    frame= 8396 fps=325 q=-0.0 size=N/A time=00:05:50.18 bitrate=N/A speed=13.6x    frame= 8573 fps=326 q=-0.0 size=N/A time=00:05:57.56 bitrate=N/A speed=13.6x    frame= 8759 fps=326 q=-0.0 size=N/A time=00:06:05.32 bitrate=N/A speed=13.6x    frame= 8943 fps=327 q=-0.0 size=N/A time=00:06:12.99 bitrate=N/A speed=13.6x    frame= 9125 fps=327 q=-0.0 size=N/A time=00:06:20.58 bitrate=N/A speed=13.7x    frame= 9301 fps=328 q=-0.0 size=N/A time=00:06:27.92 bitrate=N/A speed=13.7x    frame= 9499 fps=329 q=-0.0 size=N/A time=00:06:36.18 bitrate=N/A speed=13.7x    frame= 9682 fps=329 q=-0.0 size=N/A time=00:06:43.82 bitrate=N/A speed=13.7x    frame= 9868 fps=330 q=-0.0 size=N/A time=00:06:51.57 bitrate=N/A speed=13.8x    frame=10052 fps=330 q=-0.0 size=N/A time=00:06:59.25 bitrate=N/A speed=13.8x    frame=10228 fps=330 q=-0.0 size=N/A time=00:07:06.59 bitrate=N/A speed=13.8x    frame=10400 fps=330 q=-0.0 size=N/A time=00:07:13.76 bitrate=N/A speed=13.8x    frame=10574 fps=330 q=-0.0 size=N/A time=00:07:21.02 bitrate=N/A speed=13.8x    frame=10745 fps=330 q=-0.0 size=N/A time=00:07:28.15 bitrate=N/A speed=13.8x    frame=10937 fps=331 q=-0.0 size=N/A time=00:07:36.16 bitrate=N/A speed=13.8x    frame=11120 fps=331 q=-0.0 size=N/A time=00:07:43.79 bitrate=N/A speed=13.8x    frame=11288 fps=331 q=-0.0 size=N/A time=00:07:50.80 bitrate=N/A speed=13.8x    frame=11479 fps=332 q=-0.0 size=N/A time=00:07:58.76 bitrate=N/A speed=13.8x    frame=11664 fps=332 q=-0.0 size=N/A time=00:08:06.48 bitrate=N/A speed=13.9x    frame=11842 fps=333 q=-0.0 size=N/A time=00:08:13.91 bitrate=N/A speed=13.9x    frame=12022 fps=333 q=-0.0 size=N/A time=00:08:21.41 bitrate=N/A speed=13.9x    frame=12199 fps=333 q=-0.0 size=N/A time=00:08:28.79 bitrate=N/A speed=13.9x    frame=12362 fps=333 q=-0.0 size=N/A time=00:08:35.59 bitrate=N/A speed=13.9x    frame=12532 fps=333 q=-0.0 size=N/A time=00:08:42.68 bitrate=N/A speed=13.9x    frame=12713 fps=333 q=-0.0 size=N/A time=00:08:50.23 bitrate=N/A speed=13.9x    frame=12889 fps=333 q=-0.0 size=N/A time=00:08:57.57 bitrate=N/A speed=13.9x    frame=13057 fps=333 q=-0.0 size=N/A time=00:09:04.58 bitrate=N/A speed=13.9x    frame=13226 fps=333 q=-0.0 size=N/A time=00:09:11.63 bitrate=N/A speed=13.9x    frame=13397 fps=333 q=-0.0 size=N/A time=00:09:18.76 bitrate=N/A speed=13.9x    frame=13567 fps=333 q=-0.0 size=N/A time=00:09:25.85 bitrate=N/A speed=13.9x    frame=13756 fps=333 q=-0.0 size=N/A time=00:09:33.73 bitrate=N/A speed=13.9x    frame=13935 fps=333 q=-0.0 size=N/A time=00:09:41.20 bitrate=N/A speed=13.9x    frame=14094 fps=333 q=-0.0 size=N/A time=00:09:47.83 bitrate=N/A speed=13.9x    frame=14267 fps=333 q=-0.0 size=N/A time=00:09:55.05 bitrate=N/A speed=13.9x    frame=14447 fps=333 q=-0.0 size=N/A time=00:10:02.56 bitrate=N/A speed=13.9x    frame=14630 fps=334 q=-0.0 size=N/A time=00:10:10.19 bitrate=N/A speed=13.9x    frame=14810 fps=334 q=-0.0 size=N/A time=00:10:17.70 bitrate=N/A speed=13.9x    frame=15003 fps=334 q=-0.0 size=N/A time=00:10:25.75 bitrate=N/A speed=13.9x    frame=15163 fps=334 q=-0.0 size=N/A time=00:10:32.42 bitrate=N/A speed=13.9x    frame=15340 fps=334 q=-0.0 size=N/A time=00:10:39.80 bitrate=N/A speed=13.9x    frame=15527 fps=334 q=-0.0 size=N/A time=00:10:47.60 bitrate=N/A speed=13.9x    frame=15710 fps=335 q=-0.0 size=N/A time=00:10:55.23 bitrate=N/A speed=  14x    frame=15894 fps=335 q=-0.0 size=N/A time=00:11:02.91 bitrate=N/A speed=  14x    frame=16068 fps=335 q=-0.0 size=N/A time=00:11:10.16 bitrate=N/A speed=  14x    frame=16245 fps=335 q=-0.0 size=N/A time=00:11:17.55 bitrate=N/A speed=  14x    frame=16433 fps=335 q=-0.0 size=N/A time=00:11:25.39 bitrate=N/A speed=  14x    frame=16616 fps=335 q=-0.0 size=N/A time=00:11:33.02 bitrate=N/A speed=  14x    frame=16804 fps=336 q=-0.0 size=N/A time=00:11:40.86 bitrate=N/A speed=  14x    frame=16997 fps=336 q=-0.0 size=N/A time=00:11:48.91 bitrate=N/A speed=  14x    frame=17177 fps=336 q=-0.0 size=N/A time=00:11:56.42 bitrate=N/A speed=  14x    frame=17366 fps=337 q=-0.0 size=N/A time=00:12:04.30 bitrate=N/A speed=  14x    frame=17543 fps=337 q=-0.0 size=N/A time=00:12:11.68 bitrate=N/A speed=  14x    frame=17731 fps=337 q=-0.0 size=N/A time=00:12:19.53 bitrate=N/A speed=14.1x    frame=17906 fps=337 q=-0.0 size=N/A time=00:12:26.82 bitrate=N/A speed=14.1x    frame=18093 fps=337 q=-0.0 size=N/A time=00:12:34.62 bitrate=N/A speed=14.1x    frame=18266 fps=337 q=-0.0 size=N/A time=00:12:41.84 bitrate=N/A speed=14.1x    frame=18444 fps=337 q=-0.0 size=N/A time=00:12:49.26 bitrate=N/A speed=14.1x    frame=18630 fps=337 q=-0.0 size=N/A time=00:12:57.02 bitrate=N/A speed=14.1x    frame=18815 fps=338 q=-0.0 size=N/A time=00:13:04.74 bitrate=N/A speed=14.1x    frame=19014 fps=338 q=-0.0 size=N/A time=00:13:13.04 bitrate=N/A speed=14.1x    frame=19200 fps=338 q=-0.0 size=N/A time=00:13:20.80 bitrate=N/A speed=14.1x    frame=19385 fps=339 q=-0.0 size=N/A time=00:13:28.51 bitrate=N/A speed=14.1x    frame=19575 fps=339 q=-0.0 size=N/A time=00:13:36.44 bitrate=N/A speed=14.1x    frame=19764 fps=339 q=-0.0 size=N/A time=00:13:44.32 bitrate=N/A speed=14.1x    frame=19958 fps=339 q=-0.0 size=N/A time=00:13:52.41 bitrate=N/A speed=14.2x    frame=20139 fps=339 q=-0.0 size=N/A time=00:13:59.96 bitrate=N/A speed=14.2x    frame=20313 fps=339 q=-0.0 size=N/A time=00:14:07.22 bitrate=N/A speed=14.2x    frame=20479 fps=339 q=-0.0 size=N/A time=00:14:14.14 bitrate=N/A speed=14.1x    frame=20635 fps=339 q=-0.0 size=N/A time=00:14:20.65 bitrate=N/A speed=14.1x    frame=20818 fps=339 q=-0.0 size=N/A time=00:14:28.28 bitrate=N/A speed=14.1x    frame=21008 fps=339 q=-0.0 size=N/A time=00:14:36.20 bitrate=N/A speed=14.2x    frame=21193 fps=339 q=-0.0 size=N/A time=00:14:43.92 bitrate=N/A speed=14.2x    frame=21373 fps=340 q=-0.0 size=N/A time=00:14:51.43 bitrate=N/A speed=14.2x    frame=21558 fps=340 q=-0.0 size=N/A time=00:14:59.14 bitrate=N/A speed=14.2x    frame=21742 fps=340 q=-0.0 size=N/A time=00:15:06.82 bitrate=N/A speed=14.2x    frame=21918 fps=340 q=-0.0 size=N/A time=00:15:14.16 bitrate=N/A speed=14.2x    frame=22100 fps=340 q=-0.0 size=N/A time=00:15:21.75 bitrate=N/A speed=14.2x    frame=22269 fps=340 q=-0.0 size=N/A time=00:15:28.80 bitrate=N/A speed=14.2x    frame=22448 fps=340 q=-0.0 size=N/A time=00:15:36.26 bitrate=N/A speed=14.2x    frame=22627 fps=340 q=-0.0 size=N/A time=00:15:43.73 bitrate=N/A speed=14.2x    frame=22798 fps=340 q=-0.0 size=N/A time=00:15:50.86 bitrate=N/A speed=14.2x    frame=22980 fps=340 q=-0.0 size=N/A time=00:15:58.45 bitrate=N/A speed=14.2x    frame=23158 fps=340 q=-0.0 size=N/A time=00:16:05.88 bitrate=N/A speed=14.2x    frame=23342 fps=340 q=-0.0 size=N/A time=00:16:13.55 bitrate=N/A speed=14.2x    frame=23526 fps=340 q=-0.0 size=N/A time=00:16:21.23 bitrate=N/A speed=14.2x    frame=23713 fps=340 q=-0.0 size=N/A time=00:16:29.02 bitrate=N/A speed=14.2x    frame=23886 fps=340 q=-0.0 size=N/A time=00:16:36.24 bitrate=N/A speed=14.2x    frame=24082 fps=341 q=-0.0 size=N/A time=00:16:44.42 bitrate=N/A speed=14.2x    frame=24248 fps=341 q=-0.0 size=N/A time=00:16:51.34 bitrate=N/A speed=14.2x    frame=24424 fps=341 q=-0.0 size=N/A time=00:16:58.68 bitrate=N/A speed=14.2x    frame=24610 fps=341 q=-0.0 size=N/A time=00:17:06.44 bitrate=N/A speed=14.2x    frame=24794 fps=341 q=-0.0 size=N/A time=00:17:14.11 bitrate=N/A speed=14.2x    frame=24975 fps=341 q=-0.0 size=N/A time=00:17:21.66 bitrate=N/A speed=14.2x    frame=25168 fps=341 q=-0.0 size=N/A time=00:17:29.71 bitrate=N/A speed=14.2x    frame=25350 fps=341 q=-0.0 size=N/A time=00:17:37.30 bitrate=N/A speed=14.2x    frame=25534 fps=341 q=-0.0 size=N/A time=00:17:44.98 bitrate=N/A speed=14.2x    frame=25715 fps=341 q=-0.0 size=N/A time=00:17:52.52 bitrate=N/A speed=14.2x    frame=25896 fps=341 q=-0.0 size=N/A time=00:18:00.07 bitrate=N/A speed=14.2x    frame=26075 fps=341 q=-0.0 size=N/A time=00:18:07.54 bitrate=N/A speed=14.2x    frame=26260 fps=342 q=-0.0 size=N/A time=00:18:15.26 bitrate=N/A speed=14.2x    frame=26444 fps=342 q=-0.0 size=N/A time=00:18:22.93 bitrate=N/A speed=14.3x    frame=26629 fps=342 q=-0.0 size=N/A time=00:18:30.65 bitrate=N/A speed=14.3x    frame=26822 fps=342 q=-0.0 size=N/A time=00:18:38.70 bitrate=N/A speed=14.3x    frame=26988 fps=342 q=-0.0 size=N/A time=00:18:45.62 bitrate=N/A speed=14.3x    frame=27164 fps=342 q=-0.0 size=N/A time=00:18:52.96 bitrate=N/A speed=14.3x    frame=27330 fps=342 q=-0.0 size=N/A time=00:18:59.88 bitrate=N/A speed=14.3x    frame=27488 fps=342 q=-0.0 size=N/A time=00:19:06.47 bitrate=N/A speed=14.2x    frame=27669 fps=342 q=-0.0 size=N/A time=00:19:14.02 bitrate=N/A speed=14.2x    frame=27844 fps=342 q=-0.0 size=N/A time=00:19:21.32 bitrate=N/A speed=14.2x    frame=28016 fps=342 q=-0.0 size=N/A time=00:19:28.50 bitrate=N/A speed=14.2x    frame=28203 fps=342 q=-0.0 size=N/A time=00:19:36.30 bitrate=N/A speed=14.2x    frame=28381 fps=342 q=-0.0 size=N/A time=00:19:43.72 bitrate=N/A speed=14.3x    frame=28559 fps=342 q=-0.0 size=N/A time=00:19:51.14 bitrate=N/A speed=14.3x    frame=28741 fps=342 q=-0.0 size=N/A time=00:19:58.73 bitrate=N/A speed=14.3x    frame=28906 fps=342 q=-0.0 size=N/A time=00:20:05.62 bitrate=N/A speed=14.2x    frame=29072 fps=342 q=-0.0 size=N/A time=00:20:12.54 bitrate=N/A speed=14.2x    frame=29247 fps=342 q=-0.0 size=N/A time=00:20:19.84 bitrate=N/A speed=14.2x    frame=29419 fps=341 q=-0.0 size=N/A time=00:20:27.01 bitrate=N/A speed=14.2x    frame=29586 fps=341 q=-0.0 size=N/A time=00:20:33.98 bitrate=N/A speed=14.2x    frame=29752 fps=341 q=-0.0 size=N/A time=00:20:40.90 bitrate=N/A speed=14.2x    frame=29919 fps=341 q=-0.0 size=N/A time=00:20:47.87 bitrate=N/A speed=14.2x    frame=30081 fps=341 q=-0.0 size=N/A time=00:20:54.62 bitrate=N/A speed=14.2x    frame=30253 fps=341 q=-0.0 size=N/A time=00:21:01.80 bitrate=N/A speed=14.2x    frame=30435 fps=341 q=-0.0 size=N/A time=00:21:09.39 bitrate=N/A speed=14.2x    frame=30620 fps=341 q=-0.0 size=N/A time=00:21:17.10 bitrate=N/A speed=14.2x    frame=30799 fps=341 q=-0.0 size=N/A time=00:21:24.57 bitrate=N/A speed=14.2x    frame=30974 fps=341 q=-0.0 size=N/A time=00:21:31.87 bitrate=N/A speed=14.2x    frame=31160 fps=341 q=-0.0 size=N/A time=00:21:39.63 bitrate=N/A speed=14.2x    frame=31338 fps=341 q=-0.0 size=N/A time=00:21:47.05 bitrate=N/A speed=14.2x    frame=31515 fps=341 q=-0.0 size=N/A time=00:21:54.43 bitrate=N/A speed=14.2x    frame=31694 fps=341 q=-0.0 size=N/A time=00:22:01.90 bitrate=N/A speed=14.2x    frame=31872 fps=341 q=-0.0 size=N/A time=00:22:09.32 bitrate=N/A speed=14.2x    frame=32042 fps=341 q=-0.0 size=N/A time=00:22:16.41 bitrate=N/A speed=14.2x    frame=32215 fps=341 q=-0.0 size=N/A time=00:22:23.63 bitrate=N/A speed=14.2x    frame=32398 fps=341 q=-0.0 size=N/A time=00:22:31.26 bitrate=N/A speed=14.2x    frame=32564 fps=341 q=-0.0 size=N/A time=00:22:38.19 bitrate=N/A speed=14.2x    frame=32702 fps=341 q=-0.0 size=N/A time=00:22:43.94 bitrate=N/A speed=14.2x    frame=32854 fps=341 q=-0.0 size=N/A time=00:22:50.28 bitrate=N/A speed=14.2x    frame=33020 fps=340 q=-0.0 size=N/A time=00:22:57.20 bitrate=N/A speed=14.2x    frame=33185 fps=340 q=-0.0 size=N/A time=00:23:04.09 bitrate=N/A speed=14.2x    frame=33354 fps=340 q=-0.0 size=N/A time=00:23:11.13 bitrate=N/A speed=14.2x    frame=33512 fps=340 q=-0.0 size=N/A time=00:23:17.72 bitrate=N/A speed=14.2x    frame=33654 fps=340 q=-0.0 size=N/A time=00:23:23.65 bitrate=N/A speed=14.2x    frame=33792 fps=339 q=-0.0 size=N/A time=00:23:29.40 bitrate=N/A speed=14.2x    frame=33919 fps=339 q=-0.0 size=N/A time=00:23:34.70 bitrate=N/A speed=14.1x    frame=34077 fps=339 q=-0.0 size=N/A time=00:23:41.29 bitrate=N/A speed=14.1x    frame=34247 fps=339 q=-0.0 size=N/A time=00:23:48.38 bitrate=N/A speed=14.1x    frame=34375 fps=338 q=-0.0 size=N/A time=00:23:53.72 bitrate=N/A speed=14.1x    frame=34517 fps=338 q=-0.0 size=N/A time=00:23:59.64 bitrate=N/A speed=14.1x    [Parsed_ssim_16 @ 0000021e83840980] SSIM Y:0.994022 (22.234174) U:0.993993 (22.213619) V:0.993598 (21.937044) All:0.993946 (22.179827)
[out#0/null @ 0000021ef6a4dec0] video:14903KiB audio:271276KiB subtitle:0KiB other streams:0KiB global headers:0KiB muxing overhead: unknown
frame=34683 fps=338 q=-0.0 Lsize=N/A time=00:24:06.57 bitrate=N/A speed=14.1x    
